<?xml version="1.0" encoding="utf-8"?>
<!-- Generator: Adobe Illustrator 23.0.2, SVG Export Plug-In . SVG Version: 6.00 Build 0)  -->
<svg version="1.1" id="Layer_1" xmlns="http://www.w3.org/2000/svg" xmlns:xlink="http://www.w3.org/1999/xlink" x="0px" y="0px"
	 viewBox="0 0 200 40.5" style="enable-background:new 0 0 200 40.5;" xml:space="preserve">
<style type="text/css">
	.st0{clip-path:url(#SVGID_2_);}
	.st1{clip-path:url(#SVGID_4_);fill:#389096;}
	.st2{clip-path:url(#SVGID_6_);fill:#1D1D1B;}
	.st3{clip-path:url(#SVGID_8_);fill:#1D1D1B;}
	.st4{clip-path:url(#SVGID_10_);fill:#1D1D1B;}
	.st5{clip-path:url(#SVGID_12_);fill:#1D1D1B;}
	.st6{clip-path:url(#SVGID_14_);fill:#1D1D1B;}
	.st7{clip-path:url(#SVGID_16_);fill:#1D1D1B;}
	.st8{clip-path:url(#SVGID_18_);fill:#FFFFFF;}
	.st9{clip-path:url(#SVGID_20_);fill:#FFFFFF;}
	.st10{clip-path:url(#SVGID_22_);fill:#FFFFFF;}
	.st11{clip-path:url(#SVGID_24_);fill:#389096;}
	.st12{clip-path:url(#SVGID_26_);fill:#389096;}
	.st13{fill:#454545;}
</style>
<g id="Vector_Smart_Object_1_">
	<g>
		<g>
			<g>
				<defs>
					<rect id="SVGID_1_" x="98.5" y="0.2" width="92.3" height="33.1"/>
				</defs>
				<clipPath id="SVGID_2_">
					<use xlink:href="#SVGID_1_"  style="overflow:visible;"/>
				</clipPath>
				<g class="st0">
					<g>
						<g>
							<defs>
								<rect id="SVGID_3_" x="98.5" y="0.2" width="92.3" height="33.1"/>
							</defs>
							<clipPath id="SVGID_4_">
								<use xlink:href="#SVGID_3_"  style="overflow:visible;"/>
							</clipPath>
							<path class="st1" d="M181.8,30.7c0,1.4-1.2,2.6-2.6,2.6h-33.3c-1.4,0-2.6-1.2-2.6-2.6V13c0-1.4,1.2-2.6,2.6-2.6h33.3
								c1.4,0,2.6,1.2,2.6,2.6V30.7z"/>
						</g>
					</g>
					<g>
						<g>
							<defs>
								<rect id="SVGID_5_" x="98.5" y="0.2" width="92.3" height="33.1"/>
							</defs>
							<clipPath id="SVGID_6_">
								<use xlink:href="#SVGID_5_"  style="overflow:visible;"/>
							</clipPath>
							<path class="st2" d="M98.5,27.1l4.2-10.6h1.7l4.1,10.6h-2.2l-1-2.6h-3.7l-1,2.6H98.5z M103.5,18.8l-1.5,4.3h3L103.5,18.8z"/>
						</g>
					</g>
					<g>
						<g>
							<defs>
								<rect id="SVGID_7_" x="98.5" y="0.2" width="92.3" height="33.1"/>
							</defs>
							<clipPath id="SVGID_8_">
								<use xlink:href="#SVGID_7_"  style="overflow:visible;"/>
							</clipPath>
							<path class="st3" d="M109.4,16.2h2v8.3c0,0.6,0.3,0.9,0.8,0.9c0.1,0,0.2,0,0.4-0.1c0.1,0,0.3-0.1,0.4-0.1l0.3,1.6
								c-0.3,0.1-0.6,0.2-0.9,0.3c-0.4,0.1-0.7,0.1-1,0.1c-0.6,0-1.1-0.2-1.5-0.5c-0.3-0.3-0.5-0.8-0.5-1.4
								C109.4,25.3,109.4,16.2,109.4,16.2z"/>
						</g>
					</g>
					<g>
						<g>
							<defs>
								<rect id="SVGID_9_" x="98.5" y="0.2" width="92.3" height="33.1"/>
							</defs>
							<clipPath id="SVGID_10_">
								<use xlink:href="#SVGID_9_"  style="overflow:visible;"/>
							</clipPath>
							<path class="st4" d="M114.1,16.2h2v8.3c0,0.6,0.3,0.9,0.8,0.9c0.1,0,0.2,0,0.4-0.1c0.1,0,0.3-0.1,0.4-0.1l0.3,1.6
								c-0.3,0.1-0.6,0.2-0.9,0.3c-0.4,0.1-0.7,0.1-1,0.1c-0.6,0-1.1-0.2-1.5-0.5c-0.3-0.3-0.5-0.8-0.5-1.4
								C114.1,25.3,114.1,16.2,114.1,16.2z"/>
						</g>
					</g>
					<g>
						<g>
							<defs>
								<rect id="SVGID_11_" x="98.5" y="0.2" width="92.3" height="33.1"/>
							</defs>
							<clipPath id="SVGID_12_">
								<use xlink:href="#SVGID_11_"  style="overflow:visible;"/>
							</clipPath>
							<path class="st5" d="M120.4,17.2h1.7v1.6h-1.7V17.2z M120.4,19.7h1.7v6.5h-1.7V19.7z"/>
						</g>
					</g>
					<g>
						<g>
							<defs>
								<rect id="SVGID_13_" x="98.5" y="0.2" width="92.3" height="33.1"/>
							</defs>
							<clipPath id="SVGID_14_">
								<use xlink:href="#SVGID_13_"  style="overflow:visible;"/>
							</clipPath>
							<path class="st6" d="M129.6,26.2h-1.7v-3.6c0-0.5-0.1-0.9-0.3-1.1c-0.2-0.2-0.4-0.4-0.8-0.4c-0.2,0-0.3,0-0.5,0.1
								s-0.3,0.2-0.5,0.3c-0.2,0.1-0.3,0.3-0.4,0.4c-0.1,0.2-0.2,0.3-0.3,0.5v3.8h-1.7v-6.5h1.5v1.2c0.2-0.4,0.6-0.7,1-1
								c0.5-0.2,1-0.3,1.5-0.3c0.4,0,0.7,0.1,1,0.2s0.5,0.3,0.6,0.6c0.1,0.2,0.2,0.5,0.3,0.8s0.1,0.6,0.1,0.9v4.1H129.6z"/>
						</g>
					</g>
					<g>
						<g>
							<defs>
								<rect id="SVGID_15_" x="98.5" y="0.2" width="92.3" height="33.1"/>
							</defs>
							<clipPath id="SVGID_16_">
								<use xlink:href="#SVGID_15_"  style="overflow:visible;"/>
							</clipPath>
							<path class="st7" d="M140.1,25.3v1.8H133v-1.8h2.6v-6.5c-0.1,0.1-0.3,0.3-0.5,0.5s-0.5,0.3-0.8,0.4s-0.6,0.3-0.9,0.3
								c-0.3,0.1-0.6,0.1-0.8,0.1v-1.9c0.2,0,0.5-0.1,0.9-0.2c0.3-0.1,0.6-0.3,1-0.5c0.3-0.2,0.6-0.4,0.8-0.6s0.4-0.3,0.4-0.4h2.1
								v8.8H140.1z"/>
						</g>
					</g>
					<g>
						<g>
							<defs>
								<rect id="SVGID_17_" x="98.5" y="0.2" width="92.3" height="33.1"/>
							</defs>
							<clipPath id="SVGID_18_">
								<use xlink:href="#SVGID_17_"  style="overflow:visible;"/>
							</clipPath>
							<path class="st8" d="M149.2,26.9V16.4h4.4c0.5,0,0.9,0.1,1.3,0.3c0.4,0.2,0.7,0.5,1,0.8s0.5,0.7,0.7,1.1s0.2,0.8,0.2,1.2
								c0,0.4-0.1,0.9-0.2,1.3c-0.1,0.4-0.4,0.8-0.6,1.1c-0.3,0.3-0.6,0.6-1,0.8c-0.4,0.2-0.8,0.3-1.3,0.3h-3.2v3.8h-1.3L149.2,26.9
								L149.2,26.9z M150.5,21.9h3.1c0.3,0,0.5-0.1,0.8-0.2c0.2-0.1,0.4-0.3,0.6-0.5c0.2-0.2,0.3-0.4,0.4-0.7
								c0.1-0.3,0.1-0.6,0.1-0.8c0-0.3-0.1-0.6-0.2-0.9c-0.1-0.3-0.2-0.5-0.4-0.7s-0.4-0.4-0.6-0.5c-0.2-0.1-0.5-0.2-0.7-0.2h-3v4.5
								C150.6,21.9,150.5,21.9,150.5,21.9z"/>
						</g>
					</g>
					<g>
						<g>
							<defs>
								<rect id="SVGID_19_" x="98.5" y="0.2" width="92.3" height="33.1"/>
							</defs>
							<clipPath id="SVGID_20_">
								<use xlink:href="#SVGID_19_"  style="overflow:visible;"/>
							</clipPath>
							<path class="st9" d="M162.8,27c-0.7,0-1.4-0.2-2-0.5s-1.1-0.7-1.6-1.2c-0.4-0.5-0.8-1.1-1-1.7s-0.4-1.3-0.4-2s0.1-1.4,0.4-2
								c0.3-0.6,0.6-1.2,1-1.7s1-0.9,1.6-1.2c0.6-0.3,1.3-0.4,2-0.4s1.4,0.2,2,0.5s1.1,0.7,1.6,1.2c0.4,0.5,0.8,1.1,1,1.7
								s0.4,1.3,0.4,2s-0.1,1.4-0.4,2c-0.3,0.6-0.6,1.2-1,1.7s-1,0.9-1.6,1.2C164.1,26.9,163.5,27,162.8,27 M159.1,21.6
								c0,0.5,0.1,1.1,0.3,1.6s0.4,0.9,0.7,1.3s0.7,0.7,1.1,0.9c0.4,0.2,0.9,0.3,1.5,0.3s1.1-0.1,1.5-0.4c0.4-0.2,0.8-0.6,1.1-1
								s0.6-0.8,0.7-1.3c0.2-0.5,0.2-1,0.2-1.5s-0.1-1.1-0.3-1.6s-0.4-0.9-0.7-1.3s-0.7-0.7-1.1-0.9c-0.4-0.2-0.9-0.3-1.5-0.3
								s-1.1,0.1-1.5,0.4c-0.4,0.2-0.8,0.6-1.1,0.9c-0.3,0.4-0.6,0.8-0.7,1.3C159.2,20.6,159.1,21.1,159.1,21.6"/>
						</g>
					</g>
					<g>
						<g>
							<defs>
								<rect id="SVGID_21_" x="98.5" y="0.2" width="92.3" height="33.1"/>
							</defs>
							<clipPath id="SVGID_22_">
								<use xlink:href="#SVGID_21_"  style="overflow:visible;"/>
							</clipPath>
							<path class="st10" d="M175.8,18.6c-0.1-0.1-0.3-0.3-0.5-0.4s-0.4-0.2-0.7-0.3c-0.2-0.1-0.5-0.2-0.8-0.3
								c-0.3-0.1-0.6-0.1-0.9-0.1c-0.8,0-1.4,0.2-1.8,0.5c-0.4,0.3-0.6,0.7-0.6,1.3c0,0.3,0.1,0.5,0.2,0.7c0.1,0.2,0.3,0.3,0.5,0.5
								c0.2,0.1,0.5,0.3,0.9,0.3c0.3,0.1,0.8,0.2,1.2,0.3c0.5,0.1,1,0.3,1.5,0.4c0.4,0.2,0.8,0.3,1.1,0.6c0.3,0.2,0.6,0.5,0.7,0.8
								c0.2,0.3,0.2,0.7,0.2,1.2s-0.1,0.9-0.3,1.3s-0.5,0.7-0.8,0.9c-0.3,0.2-0.7,0.4-1.2,0.5s-1,0.2-1.5,0.2
								c-0.8,0-1.6-0.1-2.3-0.4s-1.4-0.6-2-1.1l0.6-1.1c0.2,0.2,0.4,0.3,0.6,0.5c0.3,0.2,0.5,0.3,0.9,0.5c0.3,0.1,0.7,0.2,1,0.3
								c0.4,0.1,0.8,0.1,1.2,0.1c0.8,0,1.3-0.1,1.8-0.4c0.4-0.3,0.6-0.7,0.6-1.2c0-0.3-0.1-0.5-0.2-0.8c-0.1-0.2-0.3-0.4-0.6-0.5
								s-0.6-0.3-1-0.4s-0.8-0.2-1.3-0.3c-0.5-0.1-1-0.3-1.4-0.4s-0.7-0.3-1-0.5s-0.5-0.5-0.6-0.8s-0.2-0.7-0.2-1.1
								c0-0.5,0.1-1,0.3-1.3c0.2-0.4,0.5-0.7,0.8-1s0.7-0.5,1.2-0.6s1-0.2,1.5-0.2c0.7,0,1.4,0.1,1.9,0.3c0.6,0.2,1.1,0.5,1.5,0.9
								L175.8,18.6z"/>
						</g>
					</g>
					<g>
						<g>
							<defs>
								<rect id="SVGID_23_" x="98.5" y="0.2" width="92.3" height="33.1"/>
							</defs>
							<clipPath id="SVGID_24_">
								<use xlink:href="#SVGID_23_"  style="overflow:visible;"/>
							</clipPath>
							<path class="st11" d="M184.9,11.1L184.9,11.1c-0.3,0-0.4-0.2-0.4-0.4c0.1-3.7-3.6-3.8-3.8-3.8s-0.4-0.2-0.4-0.4
								c0-0.2,0.2-0.4,0.4-0.4c0.1,0,2.1,0.1,3.5,1.5c0.8,0.8,1.1,1.9,1.1,3.2C185.3,10.9,185.1,11.1,184.9,11.1 M190.4,8.3
								L190.4,8.3c-0.3,0-0.4-0.2-0.4-0.4c0.1-2.7-1-4.7-3.2-5.9c-1.7-0.9-3.4-0.9-3.5-0.9c-0.2,0-0.4-0.2-0.4-0.4s0.2-0.4,0.4-0.4
								c0.1,0,3.5,0.1,5.7,2.4c1.3,1.3,1.9,3.1,1.8,5.2C190.8,8.1,190.6,8.3,190.4,8.3"/>
						</g>
					</g>
					<g>
						<g>
							<defs>
								<rect id="SVGID_25_" x="98.5" y="0.2" width="92.3" height="33.1"/>
							</defs>
							<clipPath id="SVGID_26_">
								<use xlink:href="#SVGID_25_"  style="overflow:visible;"/>
							</clipPath>
							<path class="st12" d="M187.5,9.2L187.5,9.2c-0.3,0-0.4-0.2-0.4-0.4c0-1.4-0.3-2.5-1.1-3.3c-1.4-1.5-3.6-1.6-3.7-1.6
								c-0.2,0-0.4-0.2-0.4-0.4s0.2-0.4,0.4-0.4l0,0c0.1,0,2.6,0.1,4.3,1.8c0.9,1,1.4,2.3,1.3,3.9C188,9,187.8,9.2,187.5,9.2"/>
						</g>
					</g>
				</g>
			</g>
		</g>
	</g>
</g>
<g>
	<path class="st13" d="M10,23.7c0,0.5-0.1,0.9-0.3,1.3S9.3,25.7,9,25.9s-0.7,0.5-1.1,0.6s-1,0.2-1.5,0.2s-1,0-1.5-0.1
		S4,26.4,3.7,26.2v-1.3C3.8,25,4,25,4.2,25.1s0.4,0.1,0.7,0.2s0.5,0.1,0.7,0.1s0.5,0.1,0.7,0.1c0.8,0,1.4-0.1,1.7-0.4
		c0.4-0.3,0.6-0.7,0.6-1.3c0-0.3,0-0.5-0.1-0.7s-0.2-0.4-0.4-0.5c-0.1-0.2-0.4-0.3-0.7-0.5c-0.3-0.2-0.7-0.3-1.1-0.5
		S5.5,21.2,5.2,21c-0.3-0.2-0.6-0.4-0.8-0.7c-0.2-0.2-0.4-0.5-0.5-0.8s-0.1-0.7-0.1-1.1s0.1-0.8,0.2-1.1s0.4-0.6,0.7-0.9
		s0.6-0.4,1-0.5s0.8-0.2,1.3-0.2c0.6,0,1.1,0.1,1.6,0.2C9,16,9.4,16.1,9.8,16.3l-0.5,1.1C9,17.3,8.6,17.1,8.2,17
		c-0.4-0.1-0.8-0.2-1.2-0.2c-0.6,0-1.1,0.1-1.4,0.4s-0.5,0.6-0.5,1.1c0,0.3,0,0.5,0.1,0.7s0.2,0.4,0.4,0.5C5.7,19.8,6,20,6.2,20.1
		c0.3,0.1,0.6,0.3,1,0.5S8,21,8.4,21.1s0.6,0.4,0.8,0.6s0.4,0.5,0.5,0.8S10,23.3,10,23.7z"/>
	<path class="st13" d="M17.1,26.5l-0.2-1.1h-0.1c-0.1,0.2-0.3,0.4-0.4,0.5c-0.2,0.2-0.4,0.3-0.6,0.4c-0.2,0.1-0.4,0.2-0.6,0.2
		s-0.5,0.1-0.7,0.1c-0.4,0-0.8-0.1-1.2-0.2s-0.6-0.3-0.8-0.5s-0.4-0.5-0.5-0.8s-0.2-0.8-0.2-1.3v-5.3h1.3v5.2c0,0.6,0.1,1.1,0.4,1.4
		s0.7,0.5,1.2,0.5c0.4,0,0.7-0.1,1-0.2s0.5-0.3,0.6-0.6c0.2-0.2,0.3-0.6,0.4-0.9s0.1-0.8,0.1-1.2v-4.2h1.3v8
		C18.1,26.5,17.1,26.5,17.1,26.5z"/>
	<path class="st13" d="M24.4,26.7c-0.3,0-0.5,0-0.8-0.1s-0.4-0.1-0.6-0.3c-0.2-0.1-0.4-0.2-0.5-0.4c-0.1-0.1-0.3-0.3-0.4-0.4H22
		c0,0.2,0,0.3,0,0.5c0,0.1,0,0.3,0,0.4s0,0.2,0,0.3v3.4h-1.3V18.5h1.1l0.2,1.1h0.1c0.1-0.2,0.2-0.3,0.4-0.5s0.3-0.3,0.5-0.4
		s0.4-0.2,0.6-0.3c0.2-0.1,0.5-0.1,0.8-0.1c0.5,0,0.9,0.1,1.3,0.3s0.7,0.4,1,0.8c0.3,0.3,0.5,0.8,0.6,1.3s0.2,1.1,0.2,1.8
		c0,0.7-0.1,1.3-0.2,1.8s-0.4,1-0.6,1.3c-0.3,0.4-0.6,0.6-1,0.8S24.9,26.7,24.4,26.7z M24.1,19.5c-0.4,0-0.7,0.1-0.9,0.2
		c-0.3,0.1-0.5,0.3-0.6,0.5s-0.3,0.5-0.4,0.9s-0.1,0.7-0.1,1.2v0.3c0,0.5,0,0.9,0.1,1.3s0.2,0.7,0.3,1c0.2,0.3,0.4,0.5,0.6,0.6
		c0.3,0.1,0.6,0.2,1,0.2c0.7,0,1.1-0.3,1.5-0.8s0.5-1.3,0.5-2.3s-0.2-1.8-0.5-2.3S24.8,19.5,24.1,19.5z"/>
	<path class="st13" d="M33.2,26.7c-0.3,0-0.5,0-0.8-0.1s-0.4-0.1-0.6-0.3c-0.2-0.1-0.4-0.2-0.5-0.4c-0.1-0.1-0.3-0.3-0.4-0.4h-0.1
		c0,0.2,0,0.3,0,0.5c0,0.1,0,0.3,0,0.4s0,0.2,0,0.3v3.4h-1.3V18.5h1.1l0.2,1.1h0.1c0.1-0.2,0.2-0.3,0.4-0.5s0.3-0.3,0.5-0.4
		s0.4-0.2,0.6-0.3c0.2-0.1,0.5-0.1,0.8-0.1c0.5,0,0.9,0.1,1.3,0.3s0.7,0.4,1,0.8c0.3,0.3,0.5,0.8,0.6,1.3s0.2,1.1,0.2,1.8
		c0,0.7-0.1,1.3-0.2,1.8c-0.1,0.5-0.4,1-0.6,1.3c-0.3,0.4-0.6,0.6-1,0.8S33.6,26.7,33.2,26.7z M32.9,19.5c-0.4,0-0.7,0.1-0.9,0.2
		c-0.3,0.1-0.5,0.3-0.6,0.5s-0.3,0.5-0.4,0.9s-0.1,0.7-0.1,1.2v0.3c0,0.5,0,0.9,0.1,1.3s0.2,0.7,0.3,1c0.2,0.3,0.4,0.5,0.6,0.6
		c0.3,0.1,0.6,0.2,1,0.2c0.7,0,1.1-0.3,1.5-0.8s0.5-1.3,0.5-2.3s-0.2-1.8-0.5-2.3S33.6,19.5,32.9,19.5z"/>
	<path class="st13" d="M44.9,22.5c0,0.7-0.1,1.3-0.2,1.8c-0.2,0.5-0.4,1-0.7,1.3c-0.3,0.4-0.7,0.6-1.1,0.8s-0.9,0.3-1.5,0.3
		c-0.5,0-1-0.1-1.4-0.3s-0.8-0.5-1.1-0.8c-0.3-0.4-0.6-0.8-0.7-1.3c-0.2-0.5-0.3-1.1-0.3-1.8c0-0.7,0.1-1.3,0.2-1.8
		c0.2-0.5,0.4-0.9,0.7-1.3s0.7-0.6,1.1-0.8c0.4-0.2,0.9-0.3,1.5-0.3c0.5,0,1,0.1,1.4,0.3c0.4,0.2,0.8,0.5,1.1,0.8
		c0.3,0.4,0.6,0.8,0.7,1.3C44.8,21.2,44.9,21.8,44.9,22.5z M39.3,22.5c0,1,0.2,1.8,0.5,2.3s0.9,0.8,1.6,0.8s1.3-0.3,1.6-0.8
		s0.5-1.3,0.5-2.3s-0.2-1.8-0.5-2.3s-0.9-0.8-1.6-0.8s-1.3,0.3-1.6,0.8C39.4,20.7,39.3,21.5,39.3,22.5z"/>
	<path class="st13" d="M50.5,18.3c0.1,0,0.3,0,0.5,0s0.3,0,0.5,0.1l-0.2,1.2c-0.1,0-0.3,0-0.4-0.1c-0.1,0-0.3,0-0.4,0
		c-0.3,0-0.6,0.1-0.8,0.2c-0.3,0.1-0.5,0.3-0.7,0.5s-0.3,0.5-0.4,0.8c-0.1,0.3-0.2,0.7-0.2,1.1v4.3H47v-8h1.1l0.2,1.5h0.1
		c0.1-0.2,0.3-0.4,0.4-0.6c0.1-0.2,0.3-0.4,0.5-0.5s0.4-0.3,0.6-0.4S50.2,18.3,50.5,18.3z"/>
	<path class="st13" d="M55.4,25.6c0.1,0,0.2,0,0.3,0s0.2,0,0.3,0s0.2,0,0.3-0.1c0.1,0,0.1,0,0.2-0.1v1c-0.1,0-0.1,0.1-0.2,0.1
		s-0.2,0.1-0.3,0.1s-0.2,0-0.4,0.1c-0.1,0-0.3,0-0.4,0c-0.3,0-0.6,0-0.8-0.1s-0.5-0.2-0.7-0.4c-0.2-0.2-0.3-0.4-0.4-0.8
		c-0.1-0.3-0.2-0.7-0.2-1.2v-4.7H52v-0.6l1.1-0.6l0.6-1.7h0.8v1.8h2v1h-2v4.7c0,0.5,0.1,0.8,0.2,1.1C54.8,25.5,55.1,25.6,55.4,25.6z
		"/>
	<path class="st13" d="M61.2,26.7c-0.5,0-1-0.1-1.5-0.3s-0.8-0.4-1.1-0.8c-0.3-0.3-0.6-0.8-0.7-1.3s-0.3-1.1-0.3-1.8
		c0-0.7,0.1-1.3,0.2-1.8s0.4-1,0.7-1.3s0.6-0.6,1.1-0.8c0.4-0.2,0.9-0.3,1.4-0.3s0.9,0.1,1.3,0.3c0.4,0.2,0.7,0.4,1,0.7
		c0.3,0.3,0.5,0.7,0.6,1.1s0.2,0.9,0.2,1.5v0.8H59c0,0.9,0.2,1.6,0.6,2.1c0.4,0.4,0.9,0.7,1.7,0.7c0.2,0,0.5,0,0.7,0
		s0.4-0.1,0.6-0.1c0.2,0,0.4-0.1,0.6-0.2c0.2-0.1,0.4-0.2,0.6-0.2v1.1c-0.2,0.1-0.4,0.2-0.6,0.2s-0.4,0.1-0.6,0.2
		c-0.2,0-0.4,0.1-0.6,0.1C61.7,26.7,61.5,26.7,61.2,26.7z M60.9,19.5c-0.6,0-1,0.2-1.3,0.6S59.1,21,59,21.8h3.6c0-0.3,0-0.6-0.1-0.9
		s-0.2-0.5-0.3-0.7s-0.3-0.3-0.5-0.5S61.2,19.5,60.9,19.5z"/>
	<path class="st13" d="M71.1,25.5L71.1,25.5c-0.2,0.2-0.3,0.3-0.4,0.5c-0.1,0.1-0.3,0.3-0.5,0.4s-0.4,0.2-0.6,0.3s-0.5,0.1-0.8,0.1
		c-0.5,0-0.9-0.1-1.2-0.3s-0.7-0.4-1-0.8c-0.3-0.3-0.5-0.8-0.6-1.3s-0.2-1.1-0.2-1.8c0-0.7,0.1-1.3,0.2-1.8s0.4-1,0.6-1.3
		s0.6-0.6,1-0.8s0.8-0.3,1.2-0.3c0.3,0,0.5,0,0.8,0.1s0.4,0.1,0.6,0.3s0.4,0.2,0.5,0.4s0.3,0.3,0.4,0.4h0.1c0-0.2,0-0.3,0-0.5
		c0-0.1,0-0.3,0-0.4s0-0.2,0-0.3v-3.3h1.3v11.4h-1.1L71.1,25.5z M69,25.6c0.4,0,0.7-0.1,0.9-0.2c0.3-0.1,0.5-0.3,0.6-0.5
		c0.2-0.2,0.3-0.5,0.4-0.9c0.1-0.3,0.1-0.7,0.1-1.2v-0.3c0-0.5,0-0.9-0.1-1.3s-0.2-0.7-0.3-1c-0.2-0.3-0.4-0.5-0.6-0.6
		s-0.6-0.2-1-0.2c-0.7,0-1.1,0.3-1.5,0.8c-0.3,0.5-0.5,1.3-0.5,2.3s0.2,1.8,0.5,2.3C67.8,25.3,68.3,25.6,69,25.6z"/>
	<path class="st13" d="M82.4,18.3c0.5,0,0.9,0.1,1.3,0.3s0.7,0.4,1,0.8c0.3,0.3,0.5,0.8,0.6,1.3s0.2,1.1,0.2,1.8
		c0,0.7-0.1,1.3-0.2,1.8s-0.4,1-0.6,1.3c-0.3,0.4-0.6,0.6-1,0.8s-0.8,0.3-1.3,0.3c-0.3,0-0.5,0-0.8-0.1s-0.4-0.1-0.6-0.3
		c-0.2-0.1-0.4-0.2-0.5-0.4c-0.1-0.1-0.3-0.3-0.4-0.4H80l-0.3,1h-1V15.1H80v2.8c0,0.2,0,0.4,0,0.5s0,0.4,0,0.5c0,0.2,0,0.4,0,0.6
		h0.1c0.1-0.2,0.2-0.3,0.4-0.5s0.3-0.3,0.5-0.4s0.4-0.2,0.6-0.3S82.1,18.3,82.4,18.3z M82.2,19.5c-0.4,0-0.7,0.1-1,0.2
		s-0.5,0.3-0.6,0.6s-0.3,0.6-0.3,1c-0.1,0.4-0.1,0.8-0.1,1.3s0,0.9,0.1,1.3s0.2,0.7,0.3,1c0.2,0.3,0.4,0.5,0.6,0.6
		c0.3,0.1,0.6,0.2,1,0.2c0.7,0,1.1-0.3,1.5-0.8s0.5-1.3,0.5-2.3s-0.2-1.8-0.5-2.3S82.8,19.5,82.2,19.5z"/>
	<path class="st13" d="M86.4,18.5h1.4l1.6,4.5c0.1,0.2,0.1,0.4,0.2,0.6s0.1,0.4,0.2,0.6s0.1,0.4,0.2,0.6s0.1,0.4,0.1,0.6l0,0
		c0-0.1,0.1-0.3,0.1-0.5s0.1-0.4,0.2-0.7c0.1-0.2,0.1-0.5,0.2-0.7s0.1-0.4,0.2-0.6l1.5-4.5h1.4l-3.2,9.1c-0.1,0.4-0.3,0.8-0.4,1.1
		c-0.2,0.3-0.3,0.6-0.6,0.8s-0.5,0.4-0.7,0.5c-0.4,0.2-0.8,0.2-1.2,0.2c-0.3,0-0.5,0-0.7,0S86.6,30,86.4,30v-1.1
		c0.1,0,0.2,0,0.4,0.1c0.2,0,0.3,0,0.5,0s0.4,0,0.6-0.1s0.3-0.1,0.4-0.2s0.2-0.2,0.3-0.4s0.2-0.3,0.2-0.5l0.4-1.2L86.4,18.5z"/>
</g>
</svg>
