<?xml version="1.0" encoding="utf-8"?>
<!-- Generator: Adobe Illustrator 23.0.2, SVG Export Plug-In . SVG Version: 6.00 Build 0)  -->
<svg version="1.1" id="Layer_1" xmlns="http://www.w3.org/2000/svg" xmlns:xlink="http://www.w3.org/1999/xlink" x="0px" y="0px"
	 viewBox="0 0 200 40.5" style="enable-background:new 0 0 200 40.5;" xml:space="preserve">
<style type="text/css">
	.st0{fill:#8E54A1;}
	.st1{fill:#636565;}
	.st2{fill:#636464;}
	.st3{fill:#8E53A1;}
	.st4{fill:#454545;}
</style>
<g>
	<path class="st0" d="M97.8,26.7c-0.5,0.3-1.7,0.6-3.1,0.6c-3.3,0-5.7-2.3-5.7-6.5c0-4,2.5-6.7,6.1-6.7c1.4,0,2.4,0.3,2.8,0.6
		L97.5,16c-0.6-0.3-1.4-0.5-2.3-0.5c-2.7,0-4.5,1.9-4.5,5.3c0,3.1,1.6,5.1,4.4,5.1c0.9,0,1.9-0.2,2.5-0.5L97.8,26.7z"/>
	<path class="st0" d="M102.8,27.3c-2.2,0-4-1.8-4-4.7c0-3.1,1.8-4.9,4.1-4.9c2.4,0,4,1.9,4,4.7C107,25.8,104.8,27.3,102.8,27.3
		L102.8,27.3z M102.9,26.1c1.4,0,2.5-1.5,2.5-3.6c0-1.6-0.7-3.5-2.5-3.5s-2.5,1.8-2.5,3.6C100.4,24.5,101.4,26.1,102.9,26.1
		L102.9,26.1z"/>
	<path class="st0" d="M108.9,20.4c0-1,0-1.7-0.1-2.5h1.3l0.1,1.5l0,0c0.4-0.9,1.4-1.7,2.8-1.7c1.2,0,2.9,0.8,2.9,3.9v5.5h-1.5v-5.3
		c0-1.5-0.5-2.7-1.9-2.7c-1,0-1.8,0.8-2,1.7c-0.1,0.2-0.1,0.5-0.1,0.8v5.5h-1.5C108.9,27.1,108.9,20.4,108.9,20.4z"/>
	<path class="st0" d="M118.4,20.4c0-1,0-1.7-0.1-2.5h1.3l0.1,1.5l0,0c0.4-0.9,1.4-1.7,2.8-1.7c1.2,0,2.9,0.8,2.9,3.9v5.5H124v-5.3
		c0-1.5-0.5-2.7-1.9-2.7c-1,0-1.8,0.8-2,1.7c-0.1,0.2-0.1,0.5-0.1,0.8v5.5h-1.5L118.4,20.4L118.4,20.4z"/>
	<path class="st0" d="M128.8,22.8c0,2.3,1.3,3.2,2.8,3.2c1.1,0,1.8-0.2,2.3-0.5l0.3,1.2c-0.5,0.3-1.5,0.6-2.8,0.6
		c-2.5,0-4.1-1.9-4.1-4.6c0-2.8,1.5-5,3.9-5c2.7,0,3.4,2.6,3.4,4.3c0,0.3,0,0.6-0.1,0.8H128.8z M133.3,21.6c0-1-0.4-2.7-2.1-2.7
		c-1.5,0-2.2,1.6-2.3,2.7H133.3z"/>
	<path class="st0" d="M142.5,26.8c-0.4,0.2-1.3,0.5-2.4,0.5c-2.5,0-4.1-1.9-4.1-4.7s1.8-4.9,4.5-4.9c0.9,0,1.7,0.2,2.1,0.5l-0.3,1.3
		c-0.4-0.2-0.9-0.4-1.8-0.4c-1.9,0-2.9,1.6-2.9,3.5c0,2.1,1.2,3.4,2.9,3.4c0.9,0,1.4-0.2,1.9-0.4L142.5,26.8z"/>
	<path class="st0" d="M146.4,15.7v2.2h2.2v1.3h-2.2v4.9c0,1.1,0.3,1.8,1.1,1.8c0.4,0,0.7,0,0.9-0.1l0.1,1.3
		c-0.3,0.1-0.8,0.2-1.3,0.2c-0.7,0-1.3-0.3-1.6-0.7c-0.4-0.5-0.6-1.3-0.6-2.4v-5h-1.3v-1.3h1.3v-1.7L146.4,15.7z"/>
	<path class="st1" d="M153.4,27.1v-0.9l1.2-1.2c2.9-2.7,4.2-4.2,4.2-5.9c0-1.1-0.5-2.2-2.2-2.2c-1,0-1.9,0.5-2.4,0.9l-0.5-1.1
		c0.8-0.6,1.9-1.1,3.2-1.1c2.4,0,3.4,1.7,3.4,3.3c0,2.1-1.5,3.7-3.9,6l-0.9,0.8l0,0h5V27h-7.1V27.1z"/>
	<path class="st1" d="M166.9,27.1v-3h-5.2v-1l5-7.2h1.6v7h1.6v1.2h-1.6v3H166.9z M166.9,22.9v-3.8c0-0.6,0-1.2,0.1-1.8h-0.1
		c-0.3,0.7-0.6,1.1-0.9,1.7l-2.7,3.8l0,0h3.6L166.9,22.9L166.9,22.9z"/>
	<path class="st0" d="M176.3,20.5v2.1h-5.5v-2.1H176.3z"/>
	<path class="st1" d="M183.9,15.9v1L179,27.1h-1.5l4.8-9.9l0,0h-5.5v-1.3H183.9z"/>
	<path class="st2" d="M189.4,14.6l-1.5,0.6c4,5.5,3.7,13.3-1.2,18.4c-4.7,4.9-11.9,5.7-17.5,2.4l1.6-2.2c0.2-0.3,0.1-0.5-0.3-0.5
		l-2.3-0.1c-0.4,0-0.9,0-1.3,0l-2.3-0.1c-0.4,0-0.5,0.3-0.4,0.6l0.8,2.2c0.1,0.3,0.3,0.9,0.4,1.2l0.8,2.2c0.1,0.3,0.4,0.4,0.6,0.1
		l1.6-2.2c6.2,3.7,14.4,2.8,19.6-2.6C193.1,29.1,193.6,20.6,189.4,14.6z"/>
	<path class="st3" d="M187.7,6.2l1.1-2.2c0.2-0.4,0-0.7-0.5-0.6l-3,0.4c-0.4,0.1-1.2,0.2-1.6,0.2l-3,0.4c-0.4,0.1-0.6,0.4-0.4,0.8
		l1.5,2.6c0.2,0.4,0.6,1,0.8,1.4l1.5,2.6c0.2,0.4,0.6,0.4,0.8,0l1.2-2.5c7.4,5.4,9.5,15.7,4.4,23.6c-0.9,1.5-2,2.7-3.3,3.8l2.1,3.1
		c1.8-1.4,2.9-2.9,4.2-4.9C199.7,25.3,197,12.6,187.7,6.2z"/>
</g>
<g>
	<path class="st4" d="M10.4,18.9c0,0.4-0.1,0.9-0.2,1.3c-0.1,0.4-0.4,0.8-0.7,1.1c-0.3,0.3-0.7,0.6-1.2,0.8
		c-0.5,0.2-1.1,0.3-1.9,0.3H5.3v4.2H3.9V15.8h2.7c0.7,0,1.2,0.1,1.7,0.2s0.9,0.3,1.2,0.6c0.3,0.3,0.5,0.6,0.7,1
		C10.3,17.9,10.4,18.4,10.4,18.9z M5.3,21.1h0.9c0.5,0,0.9,0,1.2-0.1s0.6-0.2,0.8-0.4c0.2-0.2,0.4-0.4,0.5-0.7
		c0.1-0.3,0.2-0.6,0.2-1c0-0.7-0.2-1.2-0.6-1.5c-0.4-0.3-1-0.5-1.9-0.5H5.3V21.1z"/>
	<path class="st4" d="M19,22.4c0,0.7-0.1,1.3-0.2,1.8c-0.2,0.5-0.4,1-0.7,1.3c-0.3,0.4-0.7,0.6-1.1,0.8s-0.9,0.3-1.5,0.3
		c-0.5,0-1-0.1-1.4-0.3s-0.8-0.5-1.1-0.8c-0.3-0.4-0.6-0.8-0.7-1.3c-0.2-0.5-0.3-1.1-0.3-1.8c0-0.7,0.1-1.3,0.2-1.8
		c0.2-0.5,0.4-0.9,0.7-1.3s0.7-0.6,1.1-0.8c0.4-0.2,0.9-0.3,1.5-0.3c0.5,0,1,0.1,1.4,0.3c0.4,0.2,0.8,0.5,1.1,0.8
		c0.3,0.4,0.6,0.8,0.7,1.3C18.9,21.2,19,21.8,19,22.4z M13.3,22.4c0,1,0.2,1.8,0.5,2.3s0.9,0.8,1.6,0.8c0.7,0,1.3-0.3,1.6-0.8
		s0.5-1.3,0.5-2.3s-0.2-1.8-0.5-2.3s-0.9-0.8-1.6-0.8c-0.8,0-1.3,0.3-1.6,0.8C13.5,20.6,13.3,21.4,13.3,22.4z"/>
	<path class="st4" d="M27.2,26.5L25.9,22c0-0.1,0-0.2-0.1-0.3c0-0.1-0.1-0.2-0.1-0.3s-0.1-0.2-0.1-0.4c0-0.1-0.1-0.3-0.1-0.4
		c-0.1-0.3-0.1-0.6-0.2-0.9l0,0c-0.1,0.3-0.1,0.6-0.2,0.9c-0.1,0.2-0.1,0.5-0.2,0.8s-0.1,0.5-0.2,0.7l-1.3,4.5H22l-2.1-8h1.4l1,4.3
		c0,0.2,0.1,0.5,0.1,0.7c0,0.3,0.1,0.5,0.1,0.8s0.1,0.5,0.1,0.7s0.1,0.4,0.1,0.5l0,0c0-0.1,0.1-0.3,0.1-0.5s0.1-0.4,0.1-0.7
		c0.1-0.2,0.1-0.5,0.2-0.7s0.1-0.4,0.2-0.6l1.3-4.5H26l1.3,4.5c0,0.2,0.1,0.4,0.2,0.6s0.1,0.5,0.2,0.7s0.1,0.5,0.1,0.7
		s0.1,0.4,0.1,0.5l0,0c0-0.1,0-0.3,0.1-0.5c0-0.2,0.1-0.4,0.1-0.7c0-0.3,0.1-0.5,0.1-0.8c0.1-0.3,0.1-0.5,0.2-0.7l1-4.3h1.4l-2.1,8
		h-1.5V26.5z"/>
	<path class="st4" d="M35.4,26.6c-0.5,0-1-0.1-1.5-0.3c-0.4-0.2-0.8-0.4-1.1-0.8c-0.3-0.3-0.6-0.8-0.7-1.3c-0.2-0.5-0.3-1.1-0.3-1.8
		c0-0.7,0.1-1.3,0.2-1.8c0.2-0.5,0.4-1,0.7-1.3c0.3-0.4,0.6-0.6,1.1-0.8c0.4-0.2,0.9-0.3,1.4-0.3s0.9,0.1,1.3,0.3
		c0.4,0.2,0.7,0.4,1,0.7c0.3,0.3,0.5,0.7,0.6,1.1s0.2,0.9,0.2,1.5v0.8h-5.1c0,0.9,0.2,1.6,0.6,2.1c0.4,0.4,0.9,0.7,1.7,0.7
		c0.2,0,0.5,0,0.7,0s0.4-0.1,0.6-0.1c0.2,0,0.4-0.1,0.6-0.2c0.2-0.1,0.4-0.1,0.6-0.2v1.2c-0.2,0.1-0.4,0.2-0.6,0.2
		c-0.2,0.1-0.4,0.1-0.6,0.2c-0.2,0-0.4,0.1-0.6,0.1C35.9,26.6,35.7,26.6,35.4,26.6z M35.1,19.4c-0.6,0-1,0.2-1.3,0.6
		s-0.5,0.9-0.6,1.7h3.6c0-0.3,0-0.6-0.1-0.9s-0.2-0.5-0.3-0.7s-0.3-0.3-0.5-0.5S35.4,19.4,35.1,19.4z"/>
	<path class="st4" d="M43.8,18.3c0.1,0,0.3,0,0.5,0s0.3,0,0.5,0.1l-0.2,1.2c-0.1,0-0.3,0-0.4-0.1c-0.1,0-0.3,0-0.4,0
		c-0.3,0-0.6,0.1-0.8,0.2c-0.3,0.1-0.5,0.3-0.7,0.5S42,20.7,41.9,21c-0.1,0.3-0.2,0.7-0.2,1.1v4.3h-1.3v-8h1.1l0.2,1.5h0.1
		c0.1-0.2,0.3-0.4,0.4-0.6c0.1-0.2,0.3-0.4,0.5-0.5s0.4-0.3,0.6-0.4C43.2,18.3,43.5,18.3,43.8,18.3z"/>
	<path class="st4" d="M49.4,26.6c-0.5,0-1-0.1-1.5-0.3c-0.4-0.2-0.8-0.4-1.1-0.8c-0.3-0.3-0.6-0.8-0.7-1.3c-0.2-0.5-0.3-1.1-0.3-1.8
		c0-0.7,0.1-1.3,0.2-1.8c0.2-0.5,0.4-1,0.7-1.3c0.3-0.4,0.6-0.6,1.1-0.8c0.4-0.2,0.9-0.3,1.4-0.3s0.9,0.1,1.3,0.3
		c0.4,0.2,0.7,0.4,1,0.7c0.3,0.3,0.5,0.7,0.6,1.1s0.2,0.9,0.2,1.5v0.8h-5.1c0,0.9,0.2,1.6,0.6,2.1c0.4,0.4,0.9,0.7,1.7,0.7
		c0.2,0,0.5,0,0.7,0s0.4-0.1,0.6-0.1c0.2,0,0.4-0.1,0.6-0.2c0.2-0.1,0.4-0.1,0.6-0.2v1.2c-0.2,0.1-0.4,0.2-0.6,0.2
		c-0.2,0.1-0.4,0.1-0.6,0.2c-0.2,0-0.4,0.1-0.6,0.1C49.9,26.6,49.7,26.6,49.4,26.6z M49.1,19.4c-0.6,0-1,0.2-1.3,0.6
		s-0.5,0.9-0.6,1.7h3.6c0-0.3,0-0.6-0.1-0.9s-0.2-0.5-0.3-0.7s-0.3-0.3-0.5-0.5S49.4,19.4,49.1,19.4z"/>
	<path class="st4" d="M59.3,25.4L59.3,25.4c-0.2,0.2-0.3,0.3-0.4,0.5c-0.1,0.1-0.3,0.3-0.5,0.4s-0.4,0.2-0.6,0.3
		c-0.2,0.1-0.5,0.1-0.8,0.1c-0.5,0-0.9-0.1-1.2-0.3c-0.4-0.2-0.7-0.4-1-0.8c-0.3-0.3-0.5-0.8-0.6-1.3S54,23.2,54,22.5
		c0-0.7,0.1-1.3,0.2-1.8c0.1-0.5,0.4-1,0.6-1.3s0.6-0.6,1-0.8s0.8-0.3,1.2-0.3c0.3,0,0.5,0,0.8,0.1s0.4,0.1,0.6,0.3s0.4,0.2,0.5,0.4
		c0.1,0.1,0.3,0.3,0.4,0.4h0.1c0-0.2,0-0.3,0-0.5c0-0.1,0-0.3,0-0.4s0-0.2,0-0.3v-3.2h1.3v11.4h-1.1L59.3,25.4z M57.2,25.5
		c0.4,0,0.7-0.1,0.9-0.2c0.3-0.1,0.5-0.3,0.6-0.5c0.2-0.2,0.3-0.5,0.4-0.9c0.1-0.3,0.1-0.7,0.1-1.2v-0.3c0-0.5,0-0.9-0.1-1.3
		s-0.2-0.7-0.3-1c-0.2-0.3-0.4-0.5-0.6-0.6c-0.3-0.1-0.6-0.2-1-0.2c-0.7,0-1.1,0.3-1.5,0.8c-0.3,0.5-0.5,1.3-0.5,2.3
		s0.2,1.8,0.5,2.3C56,25.3,56.5,25.5,57.2,25.5z"/>
	<path class="st4" d="M70.6,18.3c0.5,0,0.9,0.1,1.3,0.3c0.4,0.2,0.7,0.4,1,0.8c0.3,0.3,0.5,0.8,0.6,1.3s0.2,1.1,0.2,1.8
		c0,0.7-0.1,1.3-0.2,1.8s-0.4,1-0.6,1.3c-0.3,0.4-0.6,0.6-1,0.8c-0.4,0.2-0.8,0.3-1.3,0.3c-0.3,0-0.5,0-0.8-0.1
		c-0.2-0.1-0.4-0.1-0.6-0.3c-0.2-0.1-0.4-0.2-0.5-0.4c-0.1-0.1-0.3-0.3-0.4-0.4h-0.1l-0.3,1h-1V15.1h1.3v2.8c0,0.2,0,0.4,0,0.5
		s0,0.4,0,0.5c0,0.2,0,0.4,0,0.6h0.1c0.1-0.2,0.2-0.3,0.4-0.5c0.1-0.1,0.3-0.3,0.5-0.4s0.4-0.2,0.6-0.3
		C70.1,18.3,70.3,18.3,70.6,18.3z M70.4,19.4c-0.4,0-0.7,0.1-1,0.2s-0.5,0.3-0.6,0.6c-0.2,0.3-0.3,0.6-0.3,1
		c-0.1,0.4-0.1,0.8-0.1,1.3s0,0.9,0.1,1.3s0.2,0.7,0.3,1c0.2,0.3,0.4,0.5,0.6,0.6c0.3,0.1,0.6,0.2,1,0.2c0.7,0,1.1-0.3,1.5-0.8
		c0.3-0.5,0.5-1.3,0.5-2.3s-0.2-1.8-0.5-2.3C71.5,19.6,71,19.4,70.4,19.4z"/>
	<path class="st4" d="M74.6,18.4H76l1.6,4.5c0.1,0.2,0.1,0.4,0.2,0.6s0.1,0.4,0.2,0.6s0.1,0.4,0.2,0.6c0,0.2,0.1,0.4,0.1,0.6l0,0
		c0-0.1,0.1-0.3,0.1-0.5c0.1-0.2,0.1-0.4,0.2-0.7c0.1-0.2,0.1-0.5,0.2-0.7s0.1-0.4,0.2-0.6l1.5-4.5h1.4l-3.2,9.1
		c-0.1,0.4-0.3,0.8-0.4,1.1c-0.2,0.3-0.3,0.6-0.6,0.8c-0.2,0.2-0.5,0.4-0.7,0.5c-0.3,0.1-0.6,0.2-1,0.2c-0.3,0-0.5,0-0.7,0
		s-0.3-0.1-0.5-0.1v-1.1c0.1,0,0.2,0,0.4,0.1c0.2,0,0.3,0,0.5,0s0.4,0,0.6-0.1s0.3-0.1,0.4-0.2s0.2-0.2,0.3-0.4s0.2-0.3,0.2-0.5
		l0.4-1.2L74.6,18.4z"/>
</g>
</svg>
