<?xml version="1.0" encoding="utf-8"?>
<!-- Generator: Adobe Illustrator 27.0.1, SVG Export Plug-In . SVG Version: 6.00 Build 0)  -->
<svg version="1.1" id="Layer_1" xmlns="http://www.w3.org/2000/svg" xmlns:xlink="http://www.w3.org/1999/xlink" x="0px" y="0px"
	 viewBox="0 0 70 70" style="enable-background:new 0 0 70 70;" xml:space="preserve">
<style type="text/css">
	.st0{fill:#FFFC00;}
	.st1{clip-path:url(#SVGID_00000036231351252188644460000000460692972365839759_);}
	.st2{fill:#FFFFFF;}
</style>
<rect class="st0" width="70" height="70"/>
<g>
	<defs>
		<rect id="SVGID_1_" x="11" y="12.5" width="48" height="45.1"/>
	</defs>
	<clipPath id="SVGID_00000078023742283830963970000018079997159572696466_">
		<use xlink:href="#SVGID_1_"  style="overflow:visible;"/>
	</clipPath>
	<g style="clip-path:url(#SVGID_00000078023742283830963970000018079997159572696466_);">
		<path class="st2" d="M35.3,57c-0.1,0-0.2,0-0.4,0c-0.1,0-0.2,0-0.2,0c-2.8,0-4.6-1.3-6.3-2.5c-1.2-0.8-2.3-1.6-3.6-1.9
			c-0.6-0.1-1.3-0.2-1.9-0.2c-0.9,0-1.8,0.1-2.6,0.3c-0.3,0.1-0.7,0.1-1,0.1c-0.3,0-0.6-0.1-0.7-0.5c-0.1-0.4-0.2-0.7-0.3-1.1
			c-0.2-0.9-0.3-1.5-0.7-1.5c-4.4-0.7-5.7-1.6-6-2.3c0-0.1-0.1-0.2-0.1-0.3c0-0.3,0.2-0.5,0.4-0.5c6.8-1.1,9.8-8,9.9-8.3
			c0,0,0,0,0,0c0.4-0.8,0.5-1.6,0.2-2.2c-0.5-1.1-2-1.6-3-1.9c-0.2-0.1-0.5-0.1-0.7-0.2c-2-0.8-2.2-1.6-2.1-2
			c0.1-0.7,1.1-1.2,1.8-1.2c0.2,0,0.4,0,0.5,0.1c0.9,0.4,1.7,0.6,2.4,0.6c1,0,1.4-0.4,1.4-0.5c0-0.5,0-0.9-0.1-1.4
			c-0.2-3.2-0.4-7.2,0.6-9.5c3-6.8,9.5-7.3,11.4-7.3c0,0,0.8,0,0.8,0h0.1c1.9,0,8.4,0.5,11.4,7.4c1,2.3,0.8,6.3,0.6,9.5l0,0.1
			c0,0.4,0,0.9-0.1,1.3c0,0,0.4,0.4,1.3,0.5c0.7,0,1.4-0.2,2.3-0.6c0.2-0.1,0.5-0.1,0.7-0.1c0.3,0,0.6,0,0.8,0.2h0
			c0.7,0.2,1.1,0.7,1.1,1.2c0,0.5-0.4,1.2-2.1,1.9c-0.2,0.1-0.4,0.1-0.7,0.2c-1,0.3-2.5,0.8-3,1.9c-0.3,0.6-0.2,1.3,0.2,2.2
			c0,0,0,0,0,0c0.1,0.3,3.2,7.2,9.9,8.3c0.2,0,0.4,0.3,0.4,0.5c0,0.1,0,0.2-0.1,0.3c-0.3,0.7-1.5,1.6-6,2.3c-0.4,0-0.5,0.5-0.7,1.5
			c-0.1,0.4-0.2,0.7-0.3,1.1c-0.1,0.3-0.3,0.5-0.6,0.5h0c-0.3,0-0.7-0.1-1-0.1c-0.9-0.2-1.8-0.3-2.6-0.3c-0.6,0-1.3,0.1-1.9,0.2
			c-1.3,0.2-2.4,1-3.6,1.9C39.8,55.7,38.1,57,35.3,57"/>
		<path d="M35.4,12.5h-0.9c-2,0-8.7,0.5-11.8,7.6c-1.1,2.4-0.8,6.4-0.6,9.7c0,0.4,0,0.8,0.1,1.2c-0.2,0.1-0.5,0.2-0.9,0.2
			c-0.6,0-1.4-0.2-2.2-0.6c-0.2-0.1-0.5-0.2-0.8-0.2c-1,0-2.1,0.6-2.3,1.6c-0.1,0.7,0.2,1.7,2.4,2.6c0.2,0.1,0.4,0.2,0.7,0.2
			c0.9,0.3,2.3,0.7,2.7,1.6c0.2,0.5,0.1,1.1-0.2,1.8c0,0,0,0,0,0c-0.1,0.3-3.1,7-9.6,8c-0.5,0.1-0.9,0.5-0.8,1
			c0,0.2,0.1,0.3,0.1,0.4c0.5,1.1,2.5,2,6.3,2.6c0.1,0.2,0.3,0.8,0.3,1.1c0.1,0.4,0.2,0.7,0.3,1.1c0.1,0.4,0.4,0.8,1.2,0.8
			c0.4,0,0.7-0.1,1.1-0.2c0.8-0.2,1.7-0.3,2.5-0.3c0.6,0,1.2,0.1,1.8,0.2c1.2,0.2,2.2,0.9,3.4,1.8c1.7,1.2,3.6,2.6,6.6,2.6
			c0.1,0,0.2,0,0.2,0c0.1,0,0.2,0,0.4,0c2.9,0,4.9-1.4,6.6-2.6c1.2-0.8,2.2-1.6,3.4-1.8c0.6-0.1,1.2-0.2,1.8-0.2
			c0.9,0,1.7,0.1,2.5,0.3c0.4,0.1,0.7,0.1,1.1,0.1h0.1c0.6,0,0.9-0.3,1.1-0.8c0.1-0.4,0.2-0.8,0.3-1.1c0.1-0.4,0.2-1,0.3-1.1
			c3.7-0.6,5.8-1.4,6.3-2.6c0.1-0.1,0.1-0.3,0.1-0.4c0-0.5-0.3-1-0.8-1c-6.5-1.1-9.4-7.8-9.6-8c0,0,0,0,0,0
			c-0.4-0.7-0.4-1.3-0.2-1.8c0.4-0.9,1.8-1.3,2.7-1.6c0.3-0.1,0.5-0.2,0.7-0.2c1.6-0.6,2.4-1.4,2.4-2.3c0-0.7-0.6-1.4-1.5-1.7
			c-0.3-0.1-0.7-0.2-1-0.2c-0.3,0-0.6,0.1-0.9,0.2c-0.8,0.4-1.5,0.6-2.1,0.6c-0.4,0-0.7-0.1-0.8-0.2c0-0.3,0-0.7,0.1-1l0-0.1
			c0.2-3.3,0.5-7.3-0.6-9.7C44.1,13,37.4,12.5,35.4,12.5 M35.4,13.5c1.8,0,8,0.5,11,7c1,2.2,0.7,6.1,0.5,9.2c0,0.5-0.1,1-0.1,1.4
			l0,0.2l0.1,0.1c0,0.1,0.6,0.6,1.7,0.6h0c0.7,0,1.6-0.3,2.5-0.7c0.2-0.1,0.3-0.1,0.5-0.1c0.2,0,0.4,0,0.6,0.1l0,0
			c0.5,0.2,0.8,0.5,0.8,0.8c0,0.2-0.1,0.7-1.8,1.4c-0.2,0.1-0.4,0.1-0.6,0.2c-1.1,0.4-2.7,0.9-3.3,2.2c-0.3,0.7-0.2,1.6,0.3,2.6
			c0.2,0.5,3.3,7.5,10.3,8.6c0,0,0,0.1,0,0.1c-0.1,0.3-0.9,1.2-5.6,2c-0.7,0.1-0.9,0.9-1.1,1.9c-0.1,0.3-0.1,0.7-0.3,1
			c0,0.1,0,0.1-0.2,0.1h0c-0.3,0-0.6-0.1-0.9-0.1C48.9,52.1,48,52,47.1,52c-0.7,0-1.3,0.1-2,0.2c-1.4,0.2-2.6,1.1-3.8,1.9
			c-1.7,1.2-3.4,2.4-6,2.4c-0.1,0-0.2,0-0.3,0h-0.3c-2.6,0-4.3-1.2-6-2.4c-1.2-0.9-2.4-1.7-3.8-1.9c-0.7-0.1-1.3-0.2-2-0.2
			c-0.9,0-1.8,0.1-2.7,0.3c-0.3,0.1-0.6,0.1-0.9,0.1c-0.2,0-0.2,0-0.2-0.1c-0.1-0.4-0.2-0.7-0.3-1.1c-0.2-1-0.4-1.8-1.1-1.9
			c-4.7-0.7-5.4-1.7-5.6-2c0,0,0-0.1,0-0.1c7-1.2,10.1-8.2,10.3-8.6c0.5-1,0.6-1.8,0.3-2.6c-0.6-1.3-2.2-1.8-3.3-2.2
			c-0.3-0.1-0.5-0.1-0.6-0.2c-1.4-0.6-1.9-1.1-1.8-1.5c0.1-0.4,0.8-0.8,1.3-0.8c0.1,0,0.2,0,0.3,0.1c1,0.4,1.9,0.7,2.6,0.7
			c1.2,0,1.8-0.6,1.8-0.6l0.1-0.1l0-0.2c0-0.5,0-0.9-0.1-1.4c-0.2-3.2-0.4-7.1,0.5-9.2c2.9-6.6,9.1-7,10.9-7h0.8
			C35.4,13.5,35.4,13.5,35.4,13.5"/>
	</g>
</g>
</svg>
