<?xml version="1.0" encoding="utf-8"?>
<!-- Generator: Adobe Illustrator 27.0.1, SVG Export Plug-In . SVG Version: 6.00 Build 0)  -->
<svg version="1.1" id="Layer_1" xmlns="http://www.w3.org/2000/svg" xmlns:xlink="http://www.w3.org/1999/xlink" x="0px" y="0px"
	 viewBox="0 0 70 70" style="enable-background:new 0 0 70 70;" xml:space="preserve">
<style type="text/css">
	.st0{fill:#25D366;}
	.st1{fill:#FFFFFF;}
</style>
<rect x="0" class="st0" width="70" height="70"/>
<g>
	<path class="st1" d="M52,18c-4.5-4.5-10.5-7-16.8-7c-13.1,0-23.8,10.7-23.8,23.8c0,4.2,1.1,8.3,3.2,11.9L11.2,59l12.6-3.3
		c3.5,1.9,7.4,2.9,11.4,2.9h0C48.3,58.6,59,47.9,59,34.8C59,28.5,56.5,22.4,52,18z M35.2,54.6L35.2,54.6c-3.5,0-7-0.9-10.1-2.8
		l-0.7-0.4l-7.5,2l2-7.3l-0.5-0.7c-2-3.1-3-6.8-3-10.5c0-10.9,8.9-19.8,19.8-19.8C46.1,15,55,23.9,55,34.8
		C55,45.7,46.1,54.6,35.2,54.6z"/>
	<path class="st1" d="M46.1,39.8c-0.6-0.3-3.5-1.7-4.1-1.9c-0.5-0.2-0.9-0.3-1.3,0.3c-0.4,0.6-1.5,1.9-1.9,2.3
		c-0.3,0.4-0.7,0.4-1.3,0.1c-0.6-0.3-2.5-0.9-4.8-3c-1.8-1.6-3-3.5-3.3-4.1c-0.3-0.6,0-0.9,0.3-1.2c0.3-0.3,0.6-0.7,0.9-1
		c0.3-0.3,0.4-0.6,0.6-1c0.2-0.4,0.1-0.7-0.1-1c-0.2-0.3-1.3-3.2-1.8-4.4c-0.5-1.2-1-1-1.3-1c-0.3,0-0.7,0-1.1,0
		c-0.4,0-1,0.1-1.6,0.7c-0.5,0.6-2.1,2-2.1,5c0,2.9,2.1,5.8,2.4,6.1c0.3,0.4,4.2,6.4,10.2,9c1.1,0.5,2.2,0.9,3.4,1.3
		c1.4,0.4,2.7,0.4,3.7,0.2c1.1-0.2,3.5-1.4,4-2.8c0.5-1.4,0.5-2.6,0.3-2.8C47.1,40.2,46.7,40.1,46.1,39.8z"/>
</g>
</svg>
