<?xml version="1.0" encoding="utf-8"?>
<!-- Generator: Adobe Illustrator 27.0.1, SVG Export Plug-In . SVG Version: 6.00 Build 0)  -->
<svg version="1.1" id="Layer_1" xmlns="http://www.w3.org/2000/svg" xmlns:xlink="http://www.w3.org/1999/xlink" x="0px" y="0px"
	 viewBox="0 0 70 70" style="enable-background:new 0 0 70 70;" xml:space="preserve">
<style type="text/css">
	.st0{fill:#BD081C;}
	.st1{fill:#FFFFFF;}
</style>
<rect x="0" class="st0" width="70" height="70"/>
<path class="st1" d="M35,10.8c-13.4,0-24.2,10.8-24.2,24.2c0,10.2,6.4,19,15.4,22.5c-0.2-1.9-0.4-4.9,0.1-6.9c0.4-1.9,2.8-12,2.8-12
	s-0.7-1.5-0.7-3.6c0-3.4,1.9-5.9,4.4-5.9c2.1,0,3.1,1.5,3.1,3.4c0,2.1-1.3,5.2-2,8.1c-0.6,2.4,1.2,4.4,3.6,4.4
	c4.3,0,7.6-4.5,7.6-11.1c0-5.8-4.2-9.8-10.1-9.8C28,24,24,29.2,24,34.5c0,2.1,0.8,4.3,1.8,5.5c0.2,0.2,0.2,0.4,0.2,0.7
	c-0.2,0.8-0.6,2.4-0.7,2.7c-0.1,0.4-0.4,0.5-0.8,0.3c-3-1.4-4.9-5.8-4.9-9.4c0-7.6,5.5-14.6,16-14.6c8.4,0,14.9,6,14.9,14
	c0,8.3-5.3,15-12.5,15c-2.5,0-4.8-1.3-5.5-2.8c0,0-1.2,4.6-1.5,5.7c-0.5,2.1-2,4.7-3,6.3c2.3,0.7,4.7,1.1,7.2,1.1
	c13.4,0,24.2-10.8,24.2-24.2S48.4,10.8,35,10.8z"/>
</svg>
