<?xml version="1.0" encoding="utf-8"?>
<!-- Generator: Adobe Illustrator 27.0.1, SVG Export Plug-In . SVG Version: 6.00 Build 0)  -->
<svg version="1.1" id="Layer_1" xmlns="http://www.w3.org/2000/svg" xmlns:xlink="http://www.w3.org/1999/xlink" x="0px" y="0px"
	 viewBox="0 0 70 70" style="enable-background:new 0 0 70 70;" xml:space="preserve">
<style type="text/css">
	.st0{fill:#FF0000;}
	.st1{fill:#FFFFFF;}
</style>
<rect class="st0" width="70" height="70"/>
<path class="st1" d="M58,23.4c-0.5-2.1-2.2-3.7-4.2-4.3c-3.7-1-18.8-1-18.8-1s-15,0-18.8,1c-2.1,0.6-3.7,2.2-4.2,4.3
	C11,27.1,11,35,11,35s0,7.9,1,11.6c0.5,2.1,2.2,3.7,4.2,4.3c3.7,1,18.8,1,18.8,1s15,0,18.8-1c2.1-0.6,3.7-2.2,4.2-4.3
	c1-3.8,1-11.6,1-11.6S59,27.1,58,23.4z M30.1,42.1V27.9L42.6,35L30.1,42.1z"/>
</svg>
