<?xml version="1.0" encoding="utf-8"?>
<!-- Generator: Adobe Illustrator 27.0.1, SVG Export Plug-In . SVG Version: 6.00 Build 0)  -->
<svg version="1.1" id="Layer_1" xmlns="http://www.w3.org/2000/svg" xmlns:xlink="http://www.w3.org/1999/xlink" x="0px" y="0px"
	 viewBox="0 0 70 70" style="enable-background:new 0 0 70 70;" xml:space="preserve">
<style type="text/css">
	.st0{fill:url(#SVGID_1_);}
	.st1{fill:#FFFFFF;}
</style>
<linearGradient id="SVGID_1_" gradientUnits="userSpaceOnUse" x1="0" y1="2" x2="70" y2="72" gradientTransform="matrix(1 0 0 -1 0 72)">
	<stop  offset="0" style="stop-color:#FFD521"/>
	<stop  offset="5.510481e-02" style="stop-color:#FFD020"/>
	<stop  offset="0.1241" style="stop-color:#FEC01E"/>
	<stop  offset="0.2004" style="stop-color:#FCA71B"/>
	<stop  offset="0.2821" style="stop-color:#FA8316"/>
	<stop  offset="0.3681" style="stop-color:#F85510"/>
	<stop  offset="0.4563" style="stop-color:#F51E09"/>
	<stop  offset="0.5" style="stop-color:#F30005"/>
	<stop  offset="0.5035" style="stop-color:#F20007"/>
	<stop  offset="0.5966" style="stop-color:#E1003B"/>
	<stop  offset="0.6879" style="stop-color:#D30067"/>
	<stop  offset="0.7757" style="stop-color:#C70088"/>
	<stop  offset="0.8589" style="stop-color:#BF00A0"/>
	<stop  offset="0.9357" style="stop-color:#BB00AF"/>
	<stop  offset="1" style="stop-color:#B900B4"/>
</linearGradient>
<rect y="0" class="st0" width="70" height="70"/>
<g>
	<path class="st1" d="M35,15.4c6.4,0,7.1,0,9.7,0.1c2.3,0.1,3.6,0.5,4.4,0.8c1.1,0.4,1.9,1,2.7,1.8c0.8,0.8,1.4,1.6,1.8,2.7
		c0.3,0.8,0.7,2.1,0.8,4.4c0.1,2.5,0.1,3.3,0.1,9.7s0,7.1-0.1,9.7c-0.1,2.3-0.5,3.6-0.8,4.4c-0.4,1.1-1,1.9-1.8,2.7
		c-0.8,0.8-1.6,1.4-2.7,1.8c-0.8,0.3-2.1,0.7-4.4,0.8c-2.5,0.1-3.3,0.1-9.7,0.1s-7.1,0-9.7-0.1c-2.3-0.1-3.6-0.5-4.4-0.8
		c-1.1-0.4-1.9-1-2.7-1.8c-0.8-0.8-1.4-1.6-1.8-2.7c-0.3-0.8-0.7-2.1-0.8-4.4c-0.1-2.5-0.1-3.3-0.1-9.7s0-7.1,0.1-9.7
		c0.1-2.3,0.5-3.6,0.8-4.4c0.4-1.1,1-1.9,1.8-2.7c0.8-0.8,1.6-1.4,2.7-1.8c0.8-0.3,2.1-0.7,4.4-0.8C27.9,15.4,28.6,15.4,35,15.4
		 M35,11.1c-6.5,0-7.3,0-9.8,0.1c-2.5,0.1-4.3,0.5-5.8,1.1c-1.6,0.6-2.9,1.4-4.2,2.8c-1.3,1.3-2.1,2.7-2.8,4.2
		c-0.6,1.5-1,3.3-1.1,5.8c-0.1,2.5-0.1,3.4-0.1,9.8s0,7.3,0.1,9.8c0.1,2.5,0.5,4.3,1.1,5.8c0.6,1.6,1.4,2.9,2.8,4.2
		c1.3,1.3,2.7,2.1,4.2,2.8c1.5,0.6,3.3,1,5.8,1.1s3.4,0.1,9.8,0.1s7.3,0,9.8-0.1c2.5-0.1,4.3-0.5,5.8-1.1c1.6-0.6,2.9-1.4,4.2-2.8
		c1.3-1.3,2.1-2.7,2.8-4.2c0.6-1.5,1-3.3,1.1-5.8c0.1-2.5,0.1-3.4,0.1-9.8s0-7.3-0.1-9.8c-0.1-2.5-0.5-4.3-1.1-5.8
		c-0.6-1.6-1.4-2.9-2.8-4.2c-1.3-1.3-2.7-2.1-4.2-2.8c-1.5-0.6-3.3-1-5.8-1.1C42.3,11.1,41.5,11.1,35,11.1L35,11.1z"/>
	<path class="st1" d="M35,22.7c-6.8,0-12.3,5.5-12.3,12.3S28.2,47.3,35,47.3S47.3,41.8,47.3,35S41.8,22.7,35,22.7z M35,43
		c-4.4,0-8-3.6-8-8s3.6-8,8-8s8,3.6,8,8S39.4,43,35,43z"/>
	<circle class="st1" cx="47.8" cy="22.2" r="2.9"/>
</g>
</svg>
