<?xml version="1.0" encoding="utf-8"?>
<!-- Generator: Adobe Illustrator 27.0.1, SVG Export Plug-In . SVG Version: 6.00 Build 0)  -->
<svg version="1.1" id="Layer_1" xmlns="http://www.w3.org/2000/svg" xmlns:xlink="http://www.w3.org/1999/xlink" x="0px" y="0px"
	 viewBox="0 0 70 70" style="enable-background:new 0 0 70 70;" xml:space="preserve">
<style type="text/css">
	.st0{fill:#1DA1F2;}
	.st1{fill:#FFFFFF;}
</style>
<rect x="0" class="st0" width="70" height="70"/>
<path class="st1" d="M26,54.7c18.3,0,28.2-15.1,28.2-28.2c0-0.4,0-0.9,0-1.3c1.9-1.4,3.6-3.1,5-5.1c-1.8,0.8-3.7,1.3-5.7,1.6
	c2.1-1.2,3.6-3.2,4.4-5.5c-2,1.2-4.1,2-6.3,2.4c-3.8-4-10-4.2-14-0.4c-2.6,2.4-3.7,6-2.9,9.5c-8-0.4-15.4-4.2-20.5-10.4
	c-2.6,4.5-1.3,10.3,3.1,13.2c-1.6,0-3.1-0.5-4.5-1.2v0.1c0,4.7,3.3,8.8,8,9.7c-1.5,0.4-3,0.5-4.5,0.2c1.3,4,5,6.8,9.3,6.9
	c-4.2,3.3-9.4,4.7-14.7,4.1C15.4,53.1,20.6,54.7,26,54.7"/>
</svg>
