<?xml version="1.0" encoding="utf-8"?>
<!-- Generator: Adobe Illustrator 27.0.1, SVG Export Plug-In . SVG Version: 6.00 Build 0)  -->
<svg version="1.1" id="Layer_1" xmlns="http://www.w3.org/2000/svg" xmlns:xlink="http://www.w3.org/1999/xlink" x="0px" y="0px"
	 viewBox="0 0 70 70" style="enable-background:new 0 0 70 70;" xml:space="preserve">
<style type="text/css">
	.st0{fill:#33E0A1;}
</style>
<rect class="st0" width="70" height="70"/>
<g>
	<path d="M55.9,30.2c3.2-0.8,3.2-3.2,3.2-3.2h-8c-4.8-4.8-9.7-6.4-16.1-6.4S23.7,22.2,18.9,27h-8c0,0,0,2.4,3.2,3.2
		c-0.6,0.8-1.2,1.9-1.8,3c-0.8,1.6-1.4,3.5-1.4,5c0,6.6,4.6,11.3,11.3,11.3c3.8,0,7.5-2.1,9.7-4.8l3.2,4.8l3.2-4.8
		c2.2,2.7,5.9,4.8,9.7,4.8c6.6,0,11.3-4.6,11.3-11.3c0-1.5-0.6-3.2-1.3-4.8C57.2,32.2,56.5,31.1,55.9,30.2z M22.1,46.3
		c-4.4,0-8-3.6-8-8c0-2.4,1-4.5,2.7-6c1.4-1.3,3.3-2.1,5.4-2.1c1.3,0,2.4,0.3,3.5,0.8c2.7,1.3,4.5,4,4.5,7.2
		C30.2,42.7,26.6,46.3,22.1,46.3z M35,43.1c0-4.6-2.1-9.3-5.2-12.4c-2.2-2.3-5-3.7-7.7-3.7c0,0,4.8-4.8,12.9-4.8S47.9,27,47.9,27
		c-2.7,0-5.5,1.5-7.7,3.8C37.1,33.8,35,38.4,35,43.1z M47.9,46.3c-4.4,0-8-3.6-8-8c0-3.1,1.8-5.8,4.4-7.2c1.1-0.6,2.3-0.9,3.6-0.9
		c2.2,0,4.1,0.9,5.6,2.3C55,34,56,36,56,38.3C55.9,42.7,52.3,46.3,47.9,46.3z"/>
	<path id="XMLID_83_" d="M47.9,36.6c-0.9,0-1.6,0.7-1.6,1.6c0,0.9,0.7,1.6,1.6,1.6s1.6-0.7,1.6-1.6S48.8,36.6,47.9,36.6z"/>
	<path d="M47.9,33.4c-2.7,0-4.8,2.2-4.8,4.8c0,2.7,2.2,4.8,4.8,4.8c2.7,0,4.8-2.2,4.8-4.8C52.7,35.6,50.5,33.4,47.9,33.4z
		 M47.9,41.4c-1.8,0-3.2-1.4-3.2-3.2s1.4-3.2,3.2-3.2s3.2,1.4,3.2,3.2C51.1,40,49.6,41.4,47.9,41.4z"/>
	<path id="XMLID_80_" d="M22.1,36.6c-0.9,0-1.6,0.7-1.6,1.6c0,0.9,0.7,1.6,1.6,1.6s1.6-0.7,1.6-1.6S23,36.6,22.1,36.6z"/>
	<path d="M22.1,33.4c-2.7,0-4.8,2.2-4.8,4.8c0,2.7,2.2,4.8,4.8,4.8s4.8-2.2,4.8-4.8C27,35.6,24.8,33.4,22.1,33.4z M22.1,41.4
		c-1.8,0-3.2-1.4-3.2-3.2s1.4-3.2,3.2-3.2c1.8,0,3.2,1.4,3.2,3.2C25.3,40,23.9,41.4,22.1,41.4z"/>
</g>
</svg>
