<?xml version="1.0" encoding="utf-8"?>
<!-- Generator: Adobe Illustrator 27.0.1, SVG Export Plug-In . SVG Version: 6.00 Build 0)  -->
<svg version="1.1" id="Layer_1" xmlns="http://www.w3.org/2000/svg" xmlns:xlink="http://www.w3.org/1999/xlink" x="0px" y="0px"
	 viewBox="0 0 70 70" style="enable-background:new 0 0 70 70;" xml:space="preserve">
<style type="text/css">
	.st0{fill-rule:evenodd;clip-rule:evenodd;fill:#010101;}
	.st1{fill-rule:evenodd;clip-rule:evenodd;fill:#EE1D51;}
	.st2{fill-rule:evenodd;clip-rule:evenodd;fill:#66C8CF;}
	.st3{fill-rule:evenodd;clip-rule:evenodd;fill:#FFFFFF;}
	.st4{fill-rule:evenodd;clip-rule:evenodd;fill:#EE1D52;}
	.st5{fill-rule:evenodd;clip-rule:evenodd;fill:#69C9D0;}
</style>
<path class="st0" d="M0,0h70v70H0V0z"/>
<path class="st1" d="M42.3,59c1.7,0,3.1-1.4,3.1-3.1c0-1.7-1.4-3.1-3.1-3.1h-0.5c1.7,0,3.1,1.4,3.1,3.1c0,1.7-1.4,3.1-3.1,3.1H42.3z
	"/>
<path class="st2" d="M41.8,52.8h-0.5c-1.7,0-3.1,1.4-3.1,3.1c0,1.7,1.4,3.1,3.1,3.1h0.5c-1.7,0-3.1-1.4-3.1-3.1
	C38.6,54.2,40.1,52.8,41.8,52.8z"/>
<ellipse class="st0" cx="41.8" cy="55.9" rx="1.5" ry="1.5"/>
<path class="st3" d="M17.9,51.3v1.6h1.9v6h1.9v-6h1.5l0.5-1.6H17.9z M33,51.3v1.6h1.9v6h1.9v-6h1.5l0.5-1.6H33z M23.9,52.2
	c0-0.5,0.4-0.9,0.9-0.9c0.5,0,0.9,0.4,0.9,0.9c0,0.5-0.4,0.9-0.9,0.9C24.3,53.1,23.9,52.7,23.9,52.2z M23.9,53.8h1.8V59h-1.8V53.8z
	 M26.5,51.3V59h1.8v-2l0.6-0.5l1.8,2.5h1.9l-2.5-3.7l2.3-2.2h-2.2l-1.8,1.8v-3.6H26.5z M46.1,51.3V59h1.8v-2l0.6-0.5l1.8,2.5h1.9
	l-2.5-3.7l2.3-2.2h-2.2l-1.8,1.8v-3.6H46.1z"/>
<path class="st4" d="M43.3,25c2.5,1.8,5.6,2.8,8.9,2.8v-6.4c-0.6,0-1.3-0.1-1.9-0.2v5c-3.3,0-6.4-1.1-8.9-2.8v13
	c0,6.5-5.3,11.8-11.8,11.8c-2.4,0-4.7-0.7-6.6-2c2.1,2.2,5.1,3.5,8.4,3.5c6.5,0,11.8-5.3,11.8-11.8L43.3,25L43.3,25z M45.6,18.6
	c-1.3-1.4-2.1-3.2-2.3-5.2v-0.8h-1.8C41.9,15.1,43.5,17.3,45.6,18.6L45.6,18.6z M27.2,41.2c-0.7-0.9-1.1-2.1-1.1-3.3
	c0-3,2.4-5.4,5.4-5.4c0.6,0,1.1,0.1,1.6,0.3v-6.5c-0.6-0.1-1.2-0.1-1.9-0.1v5.1c-0.5-0.2-1.1-0.3-1.6-0.3c-3,0-5.4,2.4-5.4,5.4
	C24.2,38.5,25.4,40.3,27.2,41.2z"/>
<path class="st3" d="M41.4,23.4c2.5,1.8,5.6,2.8,8.9,2.8v-5c-1.8-0.4-3.5-1.4-4.7-2.7c-2.1-1.3-3.6-3.5-4.1-6h-4.6V38
	c0,3-2.4,5.4-5.4,5.4c-1.7,0-3.3-0.8-4.3-2.1c-1.8-0.9-3-2.7-3-4.8c0-3,2.4-5.4,5.4-5.4c0.6,0,1.1,0.1,1.6,0.3v-5.1
	c-6.4,0.1-11.5,5.3-11.5,11.8c0,3.2,1.3,6.1,3.4,8.2c1.9,1.3,4.1,2,6.6,2c6.5,0,11.8-5.3,11.8-11.8L41.4,23.4z"/>
<path class="st5" d="M50.3,21.3v-1.4c-1.7,0-3.3-0.5-4.7-1.3C46.8,19.9,48.5,20.9,50.3,21.3z M41.5,12.5c0-0.2-0.1-0.5-0.1-0.7V11
	H35v25.4c0,3-2.4,5.4-5.4,5.4c-0.9,0-1.7-0.2-2.4-0.6c1,1.3,2.5,2.1,4.3,2.1c3,0,5.4-2.4,5.4-5.4V12.5H41.5z M31.2,26.2v-1.4
	c-0.5-0.1-1.1-0.1-1.6-0.1c-6.5,0-11.8,5.3-11.8,11.8c0,4.1,2.1,7.7,5.2,9.8c-2.1-2.1-3.4-5-3.4-8.2C19.7,31.6,24.9,26.3,31.2,26.2
	L31.2,26.2z"/>
<path class="st3" d="M41.8,59c1.7,0,3.1-1.4,3.1-3.1c0-1.7-1.4-3.1-3.1-3.1h0c-1.7,0-3.1,1.4-3.1,3.1C38.6,57.6,40.1,59,41.8,59
	L41.8,59z M40.3,55.9c0-0.8,0.7-1.5,1.5-1.5c0.8,0,1.5,0.7,1.5,1.5c0,0.8-0.7,1.5-1.5,1.5C41,57.4,40.3,56.7,40.3,55.9z"/>
</svg>
